ISO-10303-21;
HEADER;
FILE_DESCRIPTION(('cone-chain developable bottom, hull-cones page 06'),'2;1');
FILE_NAME('bottom.step','2026-09-15T00:29:55',(''),(''),'hull-cones','hull-cones page 06','');
FILE_SCHEMA(('AUTOMOTIVE_DESIGN { 1 0 10303 214 1 1 1 1 }'));
ENDSEC;
DATA;
#1=CARTESIAN_POINT('',(2.5,0.85,0.35));
#2=VERTEX_POINT('',#1);
#3=CARTESIAN_POINT('',(2.5,0.0,-0.303846154));
#4=VERTEX_POINT('',#3);
#5=CARTESIAN_POINT('',(2.5,0.85,0.35));
#6=CARTESIAN_POINT('',(2.518893325,0.849175651,0.344565323));
#7=CARTESIAN_POINT('',(2.547005061,0.847747707,0.33619291));
#8=CARTESIAN_POINT('',(2.584079615,0.845418868,0.324537166));
#9=CARTESIAN_POINT('',(2.611304169,0.843479695,0.315667118));
#10=CARTESIAN_POINT('',(2.638060406,0.841336511,0.306631939));
#11=CARTESIAN_POINT('',(2.664325807,0.838986459,0.297437594));
#12=CARTESIAN_POINT('',(2.690077787,0.836426826,0.288090356));
#13=CARTESIAN_POINT('',(2.715293758,0.833655049,0.278596787));
#14=CARTESIAN_POINT('',(2.739951193,0.830668733,0.26896374));
#15=CARTESIAN_POINT('',(2.764027698,0.827465658,0.259198349));
#16=CARTESIAN_POINT('',(2.787501075,0.824043795,0.249308019));
#17=CARTESIAN_POINT('',(2.810349396,0.820401316,0.239300419));
#18=CARTESIAN_POINT('',(2.832551065,0.816536604,0.229183471));
#19=CARTESIAN_POINT('',(2.854084894,0.812448264,0.218965333));
#20=CARTESIAN_POINT('',(2.874930168,0.80813513,0.208654392));
#21=CARTESIAN_POINT('',(2.895066714,0.803596274,0.198259243));
#22=CARTESIAN_POINT('',(2.914474974,0.798831012,0.187788677));
#23=CARTESIAN_POINT('',(2.933136066,0.793838911,0.177251658));
#24=CARTESIAN_POINT('',(2.951031861,0.788619792,0.166657309));
#25=CARTESIAN_POINT('',(2.968145039,0.783173734,0.156014885));
#26=CARTESIAN_POINT('',(2.984459157,0.777501073,0.145333758));
#27=CARTESIAN_POINT('',(2.999958709,0.771602408,0.13462339));
#28=CARTESIAN_POINT('',(3.014629181,0.765478596,0.123893311));
#29=CARTESIAN_POINT('',(3.028457106,0.759130752,0.113153098));
#30=CARTESIAN_POINT('',(3.041430107,0.752560249,0.102412354));
#31=CARTESIAN_POINT('',(3.053536943,0.745768718,0.091680689));
#32=CARTESIAN_POINT('',(3.064767542,0.738758048,0.080967706));
#33=CARTESIAN_POINT('',(3.075113038,0.731530394,0.070282993));
#34=CARTESIAN_POINT('',(3.084565799,0.724088191,0.059636118));
#35=CARTESIAN_POINT('',(3.093119457,0.716434169,0.049036637));
#36=CARTESIAN_POINT('',(3.100768954,0.708571383,0.038494104));
#37=CARTESIAN_POINT('',(3.107510584,0.700503252,0.028018088));
#38=CARTESIAN_POINT('',(3.113342069,0.692233595,0.017618187));
#39=CARTESIAN_POINT('',(3.118262647,0.683766671,0.00730403));
#40=CARTESIAN_POINT('',(3.12227319,0.675107215,-0.002914731));
#41=CARTESIAN_POINT('',(3.125376321,0.66626044,-0.013028462));
#42=CARTESIAN_POINT('',(3.127576548,0.657232025,-0.023027618));
#43=CARTESIAN_POINT('',(3.128880358,0.648028061,-0.032902842));
#44=CARTESIAN_POINT('',(3.129296289,0.638654967,-0.042645079));
#45=CARTESIAN_POINT('',(3.128834932,0.629119395,-0.052245695));
#46=CARTESIAN_POINT('',(3.127508895,0.619428123,-0.061696584));
#47=CARTESIAN_POINT('',(3.125332707,0.609587962,-0.070990237));
#48=CARTESIAN_POINT('',(3.122322707,0.59960569,-0.080119789));
#49=CARTESIAN_POINT('',(3.11849692,0.589488008,-0.089079017));
#50=CARTESIAN_POINT('',(3.113874944,0.579241527,-0.09786233));
#51=CARTESIAN_POINT('',(3.108477851,0.568872769,-0.10646473));
#52=CARTESIAN_POINT('',(3.102328115,0.558388185,-0.114881779));
#53=CARTESIAN_POINT('',(3.095449553,0.547794167,-0.12310956));
#54=CARTESIAN_POINT('',(3.087867273,0.537097067,-0.131144651));
#55=CARTESIAN_POINT('',(3.079607639,0.526303203,-0.138984103));
#56=CARTESIAN_POINT('',(3.070698223,0.515418862,-0.146625428));
#57=CARTESIAN_POINT('',(3.061167761,0.504450294,-0.154066589));
#58=CARTESIAN_POINT('',(3.051046103,0.493403702,-0.161305994));
#59=CARTESIAN_POINT('',(3.040364142,0.482285229,-0.168342496));
#60=CARTESIAN_POINT('',(3.029153752,0.471100932,-0.175175386));
#61=CARTESIAN_POINT('',(3.017447701,0.459856772,-0.181804392));
#62=CARTESIAN_POINT('',(3.005279563,0.44855858,-0.188229669));
#63=CARTESIAN_POINT('',(2.992683621,0.437212045,-0.194451792));
#64=CARTESIAN_POINT('',(2.97969476,0.425822686,-0.200471739));
#65=CARTESIAN_POINT('',(2.966348354,0.41439583,-0.20629088));
#66=CARTESIAN_POINT('',(2.952680144,0.402936595,-0.211910956));
#67=CARTESIAN_POINT('',(2.938726115,0.391449865,-0.217334052));
#68=CARTESIAN_POINT('',(2.924522363,0.379940276,-0.222562577));
#69=CARTESIAN_POINT('',(2.910104958,0.368412196,-0.227599228));
#70=CARTESIAN_POINT('',(2.895509804,0.356869711,-0.232446964));
#71=CARTESIAN_POINT('',(2.880772496,0.34531661,-0.237108965));
#72=CARTESIAN_POINT('',(2.865928172,0.333756375,-0.241588595));
#73=CARTESIAN_POINT('',(2.851011368,0.322192168,-0.245889365));
#74=CARTESIAN_POINT('',(2.836055866,0.310626827,-0.250014886));
#75=CARTESIAN_POINT('',(2.821094549,0.299062857,-0.253968828));
#76=CARTESIAN_POINT('',(2.806159254,0.287502426,-0.257754871));
#77=CARTESIAN_POINT('',(2.79128063,0.27594737,-0.261376663));
#78=CARTESIAN_POINT('',(2.776487997,0.264399187,-0.264837769));
#79=CARTESIAN_POINT('',(2.761809217,0.252859043,-0.268141626));
#80=CARTESIAN_POINT('',(2.747270565,0.24132778,-0.271291499));
#81=CARTESIAN_POINT('',(2.732896615,0.229805925,-0.274290429));
#82=CARTESIAN_POINT('',(2.718710133,0.218293696,-0.277141197));
#83=CARTESIAN_POINT('',(2.704731978,0.206791021,-0.279846278));
#84=CARTESIAN_POINT('',(2.690981023,0.195297552,-0.282407802));
#85=CARTESIAN_POINT('',(2.677474084,0.183812681,-0.28482752));
#86=CARTESIAN_POINT('',(2.664225864,0.172335564,-0.287106768));
#87=CARTESIAN_POINT('',(2.651248914,0.160865136,-0.289246445));
#88=CARTESIAN_POINT('',(2.638553606,0.149400142,-0.291246982));
#89=CARTESIAN_POINT('',(2.626148126,0.137939154,-0.293108322));
#90=CARTESIAN_POINT('',(2.614038478,0.126480602,-0.294829913));
#91=CARTESIAN_POINT('',(2.602228509,0.115022796,-0.296410688));
#92=CARTESIAN_POINT('',(2.590719938,0.103563955,-0.297849066));
#93=CARTESIAN_POINT('',(2.579512415,0.09210223,-0.299142948));
#94=CARTESIAN_POINT('',(2.568603577,0.080635735,-0.300289725));
#95=CARTESIAN_POINT('',(2.557989126,0.069162567,-0.301286283));
#96=CARTESIAN_POINT('',(2.547662918,0.057680832,-0.30212902));
#97=CARTESIAN_POINT('',(2.537617049,0.046188671,-0.30281386));
#98=CARTESIAN_POINT('',(2.527841977,0.034684269,-0.303336278));
#99=CARTESIAN_POINT('',(2.515206904,0.019389547,-0.30380772));
#100=CARTESIAN_POINT('',(2.506006558,0.007781428,-0.303906466));
#101=CARTESIAN_POINT('',(2.5,0.0,-0.303846154));
#102=B_SPLINE_CURVE_WITH_KNOTS('',3,(#5,#6,#7,#8,#9,#10,#11,#12,#13,#14,#15,#16,#17,#18,#19,#20,#21,#22,#23,#24,#25,#26,#27,#28,#29,#30,#31,#32,#33,#34,#35,#36,#37,#38,#39,#40,#41,#42,#43,#44,#45,#46,#47,#48,#49,#50,#51,#52,#53,#54,#55,#56,#57,#58,#59,#60,#61,#62,#63,#64,#65,#66,#67,#68,#69,#70,#71,#72,#73,#74,#75,#76,#77,#78,#79,#80,#81,#82,#83,#84,#85,#86,#87,#88,#89,#90,#91,#92,#93,#94,#95,#96,#97,#98,#99,#100,#101),.UNSPECIFIED.,.F.,.F.,(4,1,1,1,1,1,1,1,1,1,1,1,1,1,1,1,1,1,1,1,1,1,1,1,1,1,1,1,1,1,1,1,1,1,1,1,1,1,1,1,1,1,1,1,1,1,1,1,1,1,1,1,1,1,1,1,1,1,1,1,1,1,1,1,1,1,1,1,1,1,1,1,1,1,1,1,1,1,1,1,1,1,1,1,1,1,1,1,1,1,1,1,1,1,4),(0.0,0.033039841,0.049306742,0.065372622,0.081227497,0.096861456,0.112264712,0.127427658,0.142340923,0.156995434,0.171382473,0.185493752,0.199321472,0.212858408,0.226097977,0.23903433,0.251662439,0.26397819,0.275978484,0.287661348,0.299026046,0.310073203,0.320804924,0.331224933,0.3413387,0.351153578,0.360678924,0.369926223,0.378909177,0.387643778,0.396148328,0.404443411,0.412551798,0.420498263,0.428309316,0.436012852,0.443637706,0.451213153,0.458768359,0.466331827,0.473930861,0.481591087,0.489336046,0.497186883,0.505162124,0.513277551,0.521546159,0.529978178,0.538581152,0.547360061,0.55631746,0.565453646,0.574766832,0.584253318,0.593907665,0.603722871,0.613690532,0.623801004,0.63404356,0.644406534,0.654877472,0.665443262,0.676090278,0.686804505,0.697571667,0.708377353,0.719207134,0.730046682,0.740881884,0.751698953,0.762484527,0.773225779,0.783910505,0.794527218,0.805065228,0.815514717,0.825866809,0.836113625,0.84624833,0.856265173,0.866159509,0.875927818,0.885567707,0.895077901,0.904458219,0.91370955,0.922833806,0.931833871,0.940713543,0.949477466,0.958131057,0.966680429,0.975132315,0.983493986,1.0),.UNSPECIFIED.);
#103=EDGE_CURVE('',#2,#4,#102,.T.);
#104=CARTESIAN_POINT('',(2.5,-0.85,0.35));
#105=VERTEX_POINT('',#104);
#106=CARTESIAN_POINT('',(2.5,-0.85,0.35));
#107=CARTESIAN_POINT('',(2.518893325,-0.849175651,0.344565323));
#108=CARTESIAN_POINT('',(2.547005061,-0.847747707,0.33619291));
#109=CARTESIAN_POINT('',(2.584079615,-0.845418868,0.324537166));
#110=CARTESIAN_POINT('',(2.611304169,-0.843479695,0.315667118));
#111=CARTESIAN_POINT('',(2.638060406,-0.841336511,0.306631939));
#112=CARTESIAN_POINT('',(2.664325807,-0.838986459,0.297437594));
#113=CARTESIAN_POINT('',(2.690077787,-0.836426826,0.288090356));
#114=CARTESIAN_POINT('',(2.715293758,-0.833655049,0.278596787));
#115=CARTESIAN_POINT('',(2.739951193,-0.830668733,0.26896374));
#116=CARTESIAN_POINT('',(2.764027698,-0.827465658,0.259198349));
#117=CARTESIAN_POINT('',(2.787501075,-0.824043795,0.249308019));
#118=CARTESIAN_POINT('',(2.810349396,-0.820401316,0.239300419));
#119=CARTESIAN_POINT('',(2.832551065,-0.816536604,0.229183471));
#120=CARTESIAN_POINT('',(2.854084894,-0.812448264,0.218965333));
#121=CARTESIAN_POINT('',(2.874930168,-0.80813513,0.208654392));
#122=CARTESIAN_POINT('',(2.895066714,-0.803596274,0.198259243));
#123=CARTESIAN_POINT('',(2.914474974,-0.798831012,0.187788677));
#124=CARTESIAN_POINT('',(2.933136066,-0.793838911,0.177251658));
#125=CARTESIAN_POINT('',(2.951031861,-0.788619792,0.166657309));
#126=CARTESIAN_POINT('',(2.968145039,-0.783173734,0.156014885));
#127=CARTESIAN_POINT('',(2.984459157,-0.777501073,0.145333758));
#128=CARTESIAN_POINT('',(2.999958709,-0.771602408,0.13462339));
#129=CARTESIAN_POINT('',(3.014629181,-0.765478596,0.123893311));
#130=CARTESIAN_POINT('',(3.028457106,-0.759130752,0.113153098));
#131=CARTESIAN_POINT('',(3.041430107,-0.752560249,0.102412354));
#132=CARTESIAN_POINT('',(3.053536943,-0.745768718,0.091680689));
#133=CARTESIAN_POINT('',(3.064767542,-0.738758048,0.080967706));
#134=CARTESIAN_POINT('',(3.075113038,-0.731530394,0.070282993));
#135=CARTESIAN_POINT('',(3.084565799,-0.724088191,0.059636118));
#136=CARTESIAN_POINT('',(3.093119457,-0.716434169,0.049036637));
#137=CARTESIAN_POINT('',(3.100768954,-0.708571383,0.038494104));
#138=CARTESIAN_POINT('',(3.107510584,-0.700503252,0.028018088));
#139=CARTESIAN_POINT('',(3.113342069,-0.692233595,0.017618187));
#140=CARTESIAN_POINT('',(3.118262647,-0.683766671,0.00730403));
#141=CARTESIAN_POINT('',(3.12227319,-0.675107215,-0.002914731));
#142=CARTESIAN_POINT('',(3.125376321,-0.66626044,-0.013028462));
#143=CARTESIAN_POINT('',(3.127576548,-0.657232025,-0.023027618));
#144=CARTESIAN_POINT('',(3.128880358,-0.648028061,-0.032902842));
#145=CARTESIAN_POINT('',(3.129296289,-0.638654967,-0.042645079));
#146=CARTESIAN_POINT('',(3.128834932,-0.629119395,-0.052245695));
#147=CARTESIAN_POINT('',(3.127508895,-0.619428123,-0.061696584));
#148=CARTESIAN_POINT('',(3.125332707,-0.609587962,-0.070990237));
#149=CARTESIAN_POINT('',(3.122322707,-0.59960569,-0.080119789));
#150=CARTESIAN_POINT('',(3.11849692,-0.589488008,-0.089079017));
#151=CARTESIAN_POINT('',(3.113874944,-0.579241527,-0.09786233));
#152=CARTESIAN_POINT('',(3.108477851,-0.568872769,-0.10646473));
#153=CARTESIAN_POINT('',(3.102328115,-0.558388185,-0.114881779));
#154=CARTESIAN_POINT('',(3.095449553,-0.547794167,-0.12310956));
#155=CARTESIAN_POINT('',(3.087867273,-0.537097067,-0.131144651));
#156=CARTESIAN_POINT('',(3.079607639,-0.526303203,-0.138984103));
#157=CARTESIAN_POINT('',(3.070698223,-0.515418862,-0.146625428));
#158=CARTESIAN_POINT('',(3.061167761,-0.504450294,-0.154066589));
#159=CARTESIAN_POINT('',(3.051046103,-0.493403702,-0.161305994));
#160=CARTESIAN_POINT('',(3.040364142,-0.482285229,-0.168342496));
#161=CARTESIAN_POINT('',(3.029153752,-0.471100932,-0.175175386));
#162=CARTESIAN_POINT('',(3.017447701,-0.459856772,-0.181804392));
#163=CARTESIAN_POINT('',(3.005279563,-0.44855858,-0.188229669));
#164=CARTESIAN_POINT('',(2.992683621,-0.437212045,-0.194451792));
#165=CARTESIAN_POINT('',(2.97969476,-0.425822686,-0.200471739));
#166=CARTESIAN_POINT('',(2.966348354,-0.41439583,-0.20629088));
#167=CARTESIAN_POINT('',(2.952680144,-0.402936595,-0.211910956));
#168=CARTESIAN_POINT('',(2.938726115,-0.391449865,-0.217334052));
#169=CARTESIAN_POINT('',(2.924522363,-0.379940276,-0.222562577));
#170=CARTESIAN_POINT('',(2.910104958,-0.368412196,-0.227599228));
#171=CARTESIAN_POINT('',(2.895509804,-0.356869711,-0.232446964));
#172=CARTESIAN_POINT('',(2.880772496,-0.34531661,-0.237108965));
#173=CARTESIAN_POINT('',(2.865928172,-0.333756375,-0.241588595));
#174=CARTESIAN_POINT('',(2.851011368,-0.322192168,-0.245889365));
#175=CARTESIAN_POINT('',(2.836055866,-0.310626827,-0.250014886));
#176=CARTESIAN_POINT('',(2.821094549,-0.299062857,-0.253968828));
#177=CARTESIAN_POINT('',(2.806159254,-0.287502426,-0.257754871));
#178=CARTESIAN_POINT('',(2.79128063,-0.27594737,-0.261376663));
#179=CARTESIAN_POINT('',(2.776487997,-0.264399187,-0.264837769));
#180=CARTESIAN_POINT('',(2.761809217,-0.252859043,-0.268141626));
#181=CARTESIAN_POINT('',(2.747270565,-0.24132778,-0.271291499));
#182=CARTESIAN_POINT('',(2.732896615,-0.229805925,-0.274290429));
#183=CARTESIAN_POINT('',(2.718710133,-0.218293696,-0.277141197));
#184=CARTESIAN_POINT('',(2.704731978,-0.206791021,-0.279846278));
#185=CARTESIAN_POINT('',(2.690981023,-0.195297552,-0.282407802));
#186=CARTESIAN_POINT('',(2.677474084,-0.183812681,-0.28482752));
#187=CARTESIAN_POINT('',(2.664225864,-0.172335564,-0.287106768));
#188=CARTESIAN_POINT('',(2.651248914,-0.160865136,-0.289246445));
#189=CARTESIAN_POINT('',(2.638553606,-0.149400142,-0.291246982));
#190=CARTESIAN_POINT('',(2.626148126,-0.137939154,-0.293108322));
#191=CARTESIAN_POINT('',(2.614038478,-0.126480602,-0.294829913));
#192=CARTESIAN_POINT('',(2.602228509,-0.115022796,-0.296410688));
#193=CARTESIAN_POINT('',(2.590719938,-0.103563955,-0.297849066));
#194=CARTESIAN_POINT('',(2.579512415,-0.09210223,-0.299142948));
#195=CARTESIAN_POINT('',(2.568603577,-0.080635735,-0.300289725));
#196=CARTESIAN_POINT('',(2.557989126,-0.069162567,-0.301286283));
#197=CARTESIAN_POINT('',(2.547662918,-0.057680832,-0.30212902));
#198=CARTESIAN_POINT('',(2.537617049,-0.046188671,-0.30281386));
#199=CARTESIAN_POINT('',(2.527841977,-0.034684269,-0.303336278));
#200=CARTESIAN_POINT('',(2.515206904,-0.019389547,-0.30380772));
#201=CARTESIAN_POINT('',(2.506006558,-0.007781428,-0.303906466));
#202=CARTESIAN_POINT('',(2.5,0.0,-0.303846154));
#203=B_SPLINE_CURVE_WITH_KNOTS('',3,(#106,#107,#108,#109,#110,#111,#112,#113,#114,#115,#116,#117,#118,#119,#120,#121,#122,#123,#124,#125,#126,#127,#128,#129,#130,#131,#132,#133,#134,#135,#136,#137,#138,#139,#140,#141,#142,#143,#144,#145,#146,#147,#148,#149,#150,#151,#152,#153,#154,#155,#156,#157,#158,#159,#160,#161,#162,#163,#164,#165,#166,#167,#168,#169,#170,#171,#172,#173,#174,#175,#176,#177,#178,#179,#180,#181,#182,#183,#184,#185,#186,#187,#188,#189,#190,#191,#192,#193,#194,#195,#196,#197,#198,#199,#200,#201,#202),.UNSPECIFIED.,.F.,.F.,(4,1,1,1,1,1,1,1,1,1,1,1,1,1,1,1,1,1,1,1,1,1,1,1,1,1,1,1,1,1,1,1,1,1,1,1,1,1,1,1,1,1,1,1,1,1,1,1,1,1,1,1,1,1,1,1,1,1,1,1,1,1,1,1,1,1,1,1,1,1,1,1,1,1,1,1,1,1,1,1,1,1,1,1,1,1,1,1,1,1,1,1,1,1,4),(0.0,0.033039841,0.049306742,0.065372622,0.081227497,0.096861456,0.112264712,0.127427658,0.142340923,0.156995434,0.171382473,0.185493752,0.199321472,0.212858408,0.226097977,0.23903433,0.251662439,0.26397819,0.275978484,0.287661348,0.299026046,0.310073203,0.320804924,0.331224933,0.3413387,0.351153578,0.360678924,0.369926223,0.378909177,0.387643778,0.396148328,0.404443411,0.412551798,0.420498263,0.428309316,0.436012852,0.443637706,0.451213153,0.458768359,0.466331827,0.473930861,0.481591087,0.489336046,0.497186883,0.505162124,0.513277551,0.521546159,0.529978178,0.538581152,0.547360061,0.55631746,0.565453646,0.574766832,0.584253318,0.593907665,0.603722871,0.613690532,0.623801004,0.63404356,0.644406534,0.654877472,0.665443262,0.676090278,0.686804505,0.697571667,0.708377353,0.719207134,0.730046682,0.740881884,0.751698953,0.762484527,0.773225779,0.783910505,0.794527218,0.805065228,0.815514717,0.825866809,0.836113625,0.84624833,0.856265173,0.866159509,0.875927818,0.885567707,0.895077901,0.904458219,0.91370955,0.922833806,0.931833871,0.940713543,0.949477466,0.958131057,0.966680429,0.975132315,0.983493986,1.0),.UNSPECIFIED.);
#204=EDGE_CURVE('',#105,#4,#203,.T.);
#205=CARTESIAN_POINT('',(5.0,1.3,0.1));
#206=VERTEX_POINT('',#205);
#207=CARTESIAN_POINT('',(5.0,0.0,-0.9));
#208=VERTEX_POINT('',#207);
#209=CARTESIAN_POINT('',(5.0,1.3,0.1));
#210=CARTESIAN_POINT('',(5.013400106,1.299999437,0.096635573));
#211=CARTESIAN_POINT('',(5.033424462,1.299489656,0.091155888));
#212=CARTESIAN_POINT('',(5.059857682,1.297839349,0.083012519));
#213=CARTESIAN_POINT('',(5.079563666,1.296117675,0.076473487));
#214=CARTESIAN_POINT('',(5.099061334,1.293920563,0.06952279));
#215=CARTESIAN_POINT('',(5.118290274,1.291254699,0.062171822));
#216=CARTESIAN_POINT('',(5.137192703,1.288126768,0.054431949));
#217=CARTESIAN_POINT('',(5.155713961,1.284543428,0.046314473));
#218=CARTESIAN_POINT('',(5.173802887,1.280511328,0.037830635));
#219=CARTESIAN_POINT('',(5.19141206,1.27603711,0.028991614));
#220=CARTESIAN_POINT('',(5.208497946,1.271127415,0.019808524));
#221=CARTESIAN_POINT('',(5.225020949,1.265788884,0.010292423));
#222=CARTESIAN_POINT('',(5.240945407,1.260028172,0.000454311));
#223=CARTESIAN_POINT('',(5.256239525,1.253851949,-0.009694852));
#224=CARTESIAN_POINT('',(5.270875277,1.247266911,-0.020144141));
#225=CARTESIAN_POINT('',(5.284828275,1.240279792,-0.030882649));
#226=CARTESIAN_POINT('',(5.298077633,1.232897371,-0.041899476));
#227=CARTESIAN_POINT('',(5.31060581,1.225126487,-0.053183714));
#228=CARTESIAN_POINT('',(5.322398467,1.216974047,-0.064724439));
#229=CARTESIAN_POINT('',(5.333444309,1.208447032,-0.076510704));
#230=CARTESIAN_POINT('',(5.343734951,1.199552502,-0.088531534));
#231=CARTESIAN_POINT('',(5.35326477,1.190297593,-0.100775935));
#232=CARTESIAN_POINT('',(5.362030775,1.180689513,-0.113232904));
#233=CARTESIAN_POINT('',(5.370032474,1.170735526,-0.12589144));
#234=CARTESIAN_POINT('',(5.377271739,1.160442938,-0.138740567));
#235=CARTESIAN_POINT('',(5.38375268,1.149819078,-0.151769354));
#236=CARTESIAN_POINT('',(5.389481507,1.138871278,-0.164966932));
#237=CARTESIAN_POINT('',(5.394466404,1.127606855,-0.178322514));
#238=CARTESIAN_POINT('',(5.398717393,1.116033095,-0.191825402));
#239=CARTESIAN_POINT('',(5.40224621,1.104157241,-0.205464999));
#240=CARTESIAN_POINT('',(5.405066186,1.091986488,-0.219230805));
#241=CARTESIAN_POINT('',(5.407192127,1.079527974,-0.233112421));
#242=CARTESIAN_POINT('',(5.408640214,1.066788789,-0.247099533));
#243=CARTESIAN_POINT('',(5.409427899,1.053775971,-0.261181912));
#244=CARTESIAN_POINT('',(5.409573817,1.040496516,-0.275349397));
#245=CARTESIAN_POINT('',(5.409097705,1.026957381,-0.289591886));
#246=CARTESIAN_POINT('',(5.408020321,1.013165495,-0.303899325));
#247=CARTESIAN_POINT('',(5.406363378,0.999127761,-0.318261702));
#248=CARTESIAN_POINT('',(5.404149469,0.984851068,-0.332669031));
#249=CARTESIAN_POINT('',(5.40140201,0.970342289,-0.347111354));
#250=CARTESIAN_POINT('',(5.398145169,0.955608291,-0.361578726));
#251=CARTESIAN_POINT('',(5.394403806,0.940655937,-0.376061219));
#252=CARTESIAN_POINT('',(5.390203407,0.925492088,-0.390548911));
#253=CARTESIAN_POINT('',(5.38557002,0.910123605,-0.405031887));
#254=CARTESIAN_POINT('',(5.380530185,0.894557353,-0.419500236));
#255=CARTESIAN_POINT('',(5.375110868,0.878800195,-0.433944047));
#256=CARTESIAN_POINT('',(5.36933938,0.862859003,-0.448353412));
#257=CARTESIAN_POINT('',(5.363243306,0.846740648,-0.462718419));
#258=CARTESIAN_POINT('',(5.356850422,0.830452007,-0.477029154));
#259=CARTESIAN_POINT('',(5.350188604,0.813999958,-0.4912757));
#260=CARTESIAN_POINT('',(5.343285745,0.797391384,-0.505448134));
#261=CARTESIAN_POINT('',(5.33616965,0.78063317,-0.519536527));
#262=CARTESIAN_POINT('',(5.32886794,0.763732201,-0.533530939));
#263=CARTESIAN_POINT('',(5.32140794,0.746695368,-0.547421424));
#264=CARTESIAN_POINT('',(5.31381657,0.729529561,-0.56119802));
#265=CARTESIAN_POINT('',(5.306120222,0.712241672,-0.574850753));
#266=CARTESIAN_POINT('',(5.298344635,0.694838593,-0.588369632));
#267=CARTESIAN_POINT('',(5.290514766,0.677327221,-0.601744647));
#268=CARTESIAN_POINT('',(5.282654652,0.65971445,-0.614965765));
#269=CARTESIAN_POINT('',(5.274787266,0.642007177,-0.628022929));
#270=CARTESIAN_POINT('',(5.266934376,0.6242123,-0.640906055));
#271=CARTESIAN_POINT('',(5.259116388,0.606336721,-0.653605026));
#272=CARTESIAN_POINT('',(5.251352194,0.588387339,-0.666109693));
#273=CARTESIAN_POINT('',(5.243659015,0.570371061,-0.678409867));
#274=CARTESIAN_POINT('',(5.236052242,0.552294792,-0.69049532));
#275=CARTESIAN_POINT('',(5.228545274,0.534165442,-0.702355777));
#276=CARTESIAN_POINT('',(5.221149358,0.515989925,-0.713980918));
#277=CARTESIAN_POINT('',(5.213873435,0.497775154,-0.725360372));
#278=CARTESIAN_POINT('',(5.206723979,0.479528047,-0.736483712));
#279=CARTESIAN_POINT('',(5.19970485,0.461255525,-0.747340458));
#280=CARTESIAN_POINT('',(5.192817149,0.442964507,-0.75792007));
#281=CARTESIAN_POINT('',(5.186059081,0.424661913,-0.768211949));
#282=CARTESIAN_POINT('',(5.179425825,0.406354656,-0.778205433));
#283=CARTESIAN_POINT('',(5.172909418,0.388049647,-0.787889797));
#284=CARTESIAN_POINT('',(5.166498653,0.369753785,-0.797254252));
#285=CARTESIAN_POINT('',(5.160178982,0.351473955,-0.806287943));
#286=CARTESIAN_POINT('',(5.15393244,0.333217021,-0.814979952));
#287=CARTESIAN_POINT('',(5.147737588,0.314989826,-0.82331929));
#288=CARTESIAN_POINT('',(5.141569463,0.29679918,-0.831294902));
#289=CARTESIAN_POINT('',(5.13539955,0.278651859,-0.838895661));
#290=CARTESIAN_POINT('',(5.129195773,0.2605546,-0.846110366));
#291=CARTESIAN_POINT('',(5.122922501,0.242514097,-0.852927738));
#292=CARTESIAN_POINT('',(5.116540567,0.224537003,-0.859336413));
#293=CARTESIAN_POINT('',(5.11000731,0.206629929,-0.865324937));
#294=CARTESIAN_POINT('',(5.103276633,0.18879946,-0.870881756));
#295=CARTESIAN_POINT('',(5.096299075,0.171052164,-0.875995203));
#296=CARTESIAN_POINT('',(5.089021902,0.153394619,-0.880653496));
#297=CARTESIAN_POINT('',(5.08138922,0.135833447,-0.884844719));
#298=CARTESIAN_POINT('',(5.073342104,0.118375352,-0.888556826));
#299=CARTESIAN_POINT('',(5.064818762,0.101027173,-0.891777635));
#300=CARTESIAN_POINT('',(5.055754703,0.083795933,-0.894494838));
#301=CARTESIAN_POINT('',(5.046082974,0.066688875,-0.896696034));
#302=CARTESIAN_POINT('',(5.035734311,0.049713545,-0.898368716));
#303=CARTESIAN_POINT('',(5.020842006,0.027118775,-0.899887617));
#304=CARTESIAN_POINT('',(5.008626538,0.010685019,-0.900173427));
#305=CARTESIAN_POINT('',(5.0,0.0,-0.9));
#306=B_SPLINE_CURVE_WITH_KNOTS('',3,(#209,#210,#211,#212,#213,#214,#215,#216,#217,#218,#219,#220,#221,#222,#223,#224,#225,#226,#227,#228,#229,#230,#231,#232,#233,#234,#235,#236,#237,#238,#239,#240,#241,#242,#243,#244,#245,#246,#247,#248,#249,#250,#251,#252,#253,#254,#255,#256,#257,#258,#259,#260,#261,#262,#263,#264,#265,#266,#267,#268,#269,#270,#271,#272,#273,#274,#275,#276,#277,#278,#279,#280,#281,#282,#283,#284,#285,#286,#287,#288,#289,#290,#291,#292,#293,#294,#295,#296,#297,#298,#299,#300,#301,#302,#303,#304,#305),.UNSPECIFIED.,.F.,.F.,(4,1,1,1,1,1,1,1,1,1,1,1,1,1,1,1,1,1,1,1,1,1,1,1,1,1,1,1,1,1,1,1,1,1,1,1,1,1,1,1,1,1,1,1,1,1,1,1,1,1,1,1,1,1,1,1,1,1,1,1,1,1,1,1,1,1,1,1,1,1,1,1,1,1,1,1,1,1,1,1,1,1,1,1,1,1,1,1,1,1,1,1,1,1,4),(0.0,0.020842939,0.03131364,0.041796267,0.052269377,0.0627128,0.073108069,0.083438763,0.093690761,0.103852414,0.113914668,0.12387111,0.133717976,0.143454104,0.153080852,0.162601977,0.172023478,0.181353408,0.190601659,0.199779715,0.208900392,0.217977554,0.227025824,0.236060286,0.245096203,0.25414873,0.263232663,0.272362201,0.281550749,0.290810739,0.3001535,0.309589155,0.319126546,0.328773195,0.338535288,0.348417681,0.358423924,0.368556299,0.378815874,0.389202558,0.39971517,0.410351506,0.421108414,0.431981864,0.442967024,0.454058334,0.465249579,0.476533961,0.487904169,0.499352452,0.510870685,0.522450438,0.53408304,0.545759646,0.557471302,0.569209001,0.58096375,0.592726625,0.604488826,0.616241735,0.627976965,0.639686406,0.651362275,0.662997152,0.67458402,0.686116295,0.697587859,0.708993076,0.72032682,0.731584485,0.742761999,0.753855838,0.76486303,0.775781175,0.786608452,0.797343647,0.807986177,0.818536139,0.828994363,0.839362491,0.849643081,0.85983973,0.869957231,0.88000176,0.889981092,0.899904851,0.90978478,0.919635035,0.92947248,0.939316991,0.949191721,0.959123331,0.969142159,0.979282298,1.0),.UNSPECIFIED.);
#307=EDGE_CURVE('',#206,#208,#306,.T.);
#308=CARTESIAN_POINT('',(5.0,-1.3,0.1));
#309=VERTEX_POINT('',#308);
#310=CARTESIAN_POINT('',(5.0,-1.3,0.1));
#311=CARTESIAN_POINT('',(5.013400106,-1.299999437,0.096635573));
#312=CARTESIAN_POINT('',(5.033424462,-1.299489656,0.091155888));
#313=CARTESIAN_POINT('',(5.059857682,-1.297839349,0.083012519));
#314=CARTESIAN_POINT('',(5.079563666,-1.296117675,0.076473487));
#315=CARTESIAN_POINT('',(5.099061334,-1.293920563,0.06952279));
#316=CARTESIAN_POINT('',(5.118290274,-1.291254699,0.062171822));
#317=CARTESIAN_POINT('',(5.137192703,-1.288126768,0.054431949));
#318=CARTESIAN_POINT('',(5.155713961,-1.284543428,0.046314473));
#319=CARTESIAN_POINT('',(5.173802887,-1.280511328,0.037830635));
#320=CARTESIAN_POINT('',(5.19141206,-1.27603711,0.028991614));
#321=CARTESIAN_POINT('',(5.208497946,-1.271127415,0.019808524));
#322=CARTESIAN_POINT('',(5.225020949,-1.265788884,0.010292423));
#323=CARTESIAN_POINT('',(5.240945407,-1.260028172,0.000454311));
#324=CARTESIAN_POINT('',(5.256239525,-1.253851949,-0.009694852));
#325=CARTESIAN_POINT('',(5.270875277,-1.247266911,-0.020144141));
#326=CARTESIAN_POINT('',(5.284828275,-1.240279792,-0.030882649));
#327=CARTESIAN_POINT('',(5.298077633,-1.232897371,-0.041899476));
#328=CARTESIAN_POINT('',(5.31060581,-1.225126487,-0.053183714));
#329=CARTESIAN_POINT('',(5.322398467,-1.216974047,-0.064724439));
#330=CARTESIAN_POINT('',(5.333444309,-1.208447032,-0.076510704));
#331=CARTESIAN_POINT('',(5.343734951,-1.199552502,-0.088531534));
#332=CARTESIAN_POINT('',(5.35326477,-1.190297593,-0.100775935));
#333=CARTESIAN_POINT('',(5.362030775,-1.180689513,-0.113232904));
#334=CARTESIAN_POINT('',(5.370032474,-1.170735526,-0.12589144));
#335=CARTESIAN_POINT('',(5.377271739,-1.160442938,-0.138740567));
#336=CARTESIAN_POINT('',(5.38375268,-1.149819078,-0.151769354));
#337=CARTESIAN_POINT('',(5.389481507,-1.138871278,-0.164966932));
#338=CARTESIAN_POINT('',(5.394466404,-1.127606855,-0.178322514));
#339=CARTESIAN_POINT('',(5.398717393,-1.116033095,-0.191825402));
#340=CARTESIAN_POINT('',(5.40224621,-1.104157241,-0.205464999));
#341=CARTESIAN_POINT('',(5.405066186,-1.091986488,-0.219230805));
#342=CARTESIAN_POINT('',(5.407192127,-1.079527974,-0.233112421));
#343=CARTESIAN_POINT('',(5.408640214,-1.066788789,-0.247099533));
#344=CARTESIAN_POINT('',(5.409427899,-1.053775971,-0.261181912));
#345=CARTESIAN_POINT('',(5.409573817,-1.040496516,-0.275349397));
#346=CARTESIAN_POINT('',(5.409097705,-1.026957381,-0.289591886));
#347=CARTESIAN_POINT('',(5.408020321,-1.013165495,-0.303899325));
#348=CARTESIAN_POINT('',(5.406363378,-0.999127761,-0.318261702));
#349=CARTESIAN_POINT('',(5.404149469,-0.984851068,-0.332669031));
#350=CARTESIAN_POINT('',(5.40140201,-0.970342289,-0.347111354));
#351=CARTESIAN_POINT('',(5.398145169,-0.955608291,-0.361578726));
#352=CARTESIAN_POINT('',(5.394403806,-0.940655937,-0.376061219));
#353=CARTESIAN_POINT('',(5.390203407,-0.925492088,-0.390548911));
#354=CARTESIAN_POINT('',(5.38557002,-0.910123605,-0.405031887));
#355=CARTESIAN_POINT('',(5.380530185,-0.894557353,-0.419500236));
#356=CARTESIAN_POINT('',(5.375110868,-0.878800195,-0.433944047));
#357=CARTESIAN_POINT('',(5.36933938,-0.862859003,-0.448353412));
#358=CARTESIAN_POINT('',(5.363243306,-0.846740648,-0.462718419));
#359=CARTESIAN_POINT('',(5.356850422,-0.830452007,-0.477029154));
#360=CARTESIAN_POINT('',(5.350188604,-0.813999958,-0.4912757));
#361=CARTESIAN_POINT('',(5.343285745,-0.797391384,-0.505448134));
#362=CARTESIAN_POINT('',(5.33616965,-0.78063317,-0.519536527));
#363=CARTESIAN_POINT('',(5.32886794,-0.763732201,-0.533530939));
#364=CARTESIAN_POINT('',(5.32140794,-0.746695368,-0.547421424));
#365=CARTESIAN_POINT('',(5.31381657,-0.729529561,-0.56119802));
#366=CARTESIAN_POINT('',(5.306120222,-0.712241672,-0.574850753));
#367=CARTESIAN_POINT('',(5.298344635,-0.694838593,-0.588369632));
#368=CARTESIAN_POINT('',(5.290514766,-0.677327221,-0.601744647));
#369=CARTESIAN_POINT('',(5.282654652,-0.65971445,-0.614965765));
#370=CARTESIAN_POINT('',(5.274787266,-0.642007177,-0.628022929));
#371=CARTESIAN_POINT('',(5.266934376,-0.6242123,-0.640906055));
#372=CARTESIAN_POINT('',(5.259116388,-0.606336721,-0.653605026));
#373=CARTESIAN_POINT('',(5.251352194,-0.588387339,-0.666109693));
#374=CARTESIAN_POINT('',(5.243659015,-0.570371061,-0.678409867));
#375=CARTESIAN_POINT('',(5.236052242,-0.552294792,-0.69049532));
#376=CARTESIAN_POINT('',(5.228545274,-0.534165442,-0.702355777));
#377=CARTESIAN_POINT('',(5.221149358,-0.515989925,-0.713980918));
#378=CARTESIAN_POINT('',(5.213873435,-0.497775154,-0.725360372));
#379=CARTESIAN_POINT('',(5.206723979,-0.479528047,-0.736483712));
#380=CARTESIAN_POINT('',(5.19970485,-0.461255525,-0.747340458));
#381=CARTESIAN_POINT('',(5.192817149,-0.442964507,-0.75792007));
#382=CARTESIAN_POINT('',(5.186059081,-0.424661913,-0.768211949));
#383=CARTESIAN_POINT('',(5.179425825,-0.406354656,-0.778205433));
#384=CARTESIAN_POINT('',(5.172909418,-0.388049647,-0.787889797));
#385=CARTESIAN_POINT('',(5.166498653,-0.369753785,-0.797254252));
#386=CARTESIAN_POINT('',(5.160178982,-0.351473955,-0.806287943));
#387=CARTESIAN_POINT('',(5.15393244,-0.333217021,-0.814979952));
#388=CARTESIAN_POINT('',(5.147737588,-0.314989826,-0.82331929));
#389=CARTESIAN_POINT('',(5.141569463,-0.29679918,-0.831294902));
#390=CARTESIAN_POINT('',(5.13539955,-0.278651859,-0.838895661));
#391=CARTESIAN_POINT('',(5.129195773,-0.2605546,-0.846110366));
#392=CARTESIAN_POINT('',(5.122922501,-0.242514097,-0.852927738));
#393=CARTESIAN_POINT('',(5.116540567,-0.224537003,-0.859336413));
#394=CARTESIAN_POINT('',(5.11000731,-0.206629929,-0.865324937));
#395=CARTESIAN_POINT('',(5.103276633,-0.18879946,-0.870881756));
#396=CARTESIAN_POINT('',(5.096299075,-0.171052164,-0.875995203));
#397=CARTESIAN_POINT('',(5.089021902,-0.153394619,-0.880653496));
#398=CARTESIAN_POINT('',(5.08138922,-0.135833447,-0.884844719));
#399=CARTESIAN_POINT('',(5.073342104,-0.118375352,-0.888556826));
#400=CARTESIAN_POINT('',(5.064818762,-0.101027173,-0.891777635));
#401=CARTESIAN_POINT('',(5.055754703,-0.083795933,-0.894494838));
#402=CARTESIAN_POINT('',(5.046082974,-0.066688875,-0.896696034));
#403=CARTESIAN_POINT('',(5.035734311,-0.049713545,-0.898368716));
#404=CARTESIAN_POINT('',(5.020842006,-0.027118775,-0.899887617));
#405=CARTESIAN_POINT('',(5.008626538,-0.010685019,-0.900173427));
#406=CARTESIAN_POINT('',(5.0,0.0,-0.9));
#407=B_SPLINE_CURVE_WITH_KNOTS('',3,(#310,#311,#312,#313,#314,#315,#316,#317,#318,#319,#320,#321,#322,#323,#324,#325,#326,#327,#328,#329,#330,#331,#332,#333,#334,#335,#336,#337,#338,#339,#340,#341,#342,#343,#344,#345,#346,#347,#348,#349,#350,#351,#352,#353,#354,#355,#356,#357,#358,#359,#360,#361,#362,#363,#364,#365,#366,#367,#368,#369,#370,#371,#372,#373,#374,#375,#376,#377,#378,#379,#380,#381,#382,#383,#384,#385,#386,#387,#388,#389,#390,#391,#392,#393,#394,#395,#396,#397,#398,#399,#400,#401,#402,#403,#404,#405,#406),.UNSPECIFIED.,.F.,.F.,(4,1,1,1,1,1,1,1,1,1,1,1,1,1,1,1,1,1,1,1,1,1,1,1,1,1,1,1,1,1,1,1,1,1,1,1,1,1,1,1,1,1,1,1,1,1,1,1,1,1,1,1,1,1,1,1,1,1,1,1,1,1,1,1,1,1,1,1,1,1,1,1,1,1,1,1,1,1,1,1,1,1,1,1,1,1,1,1,1,1,1,1,1,1,4),(0.0,0.020842939,0.03131364,0.041796267,0.052269377,0.0627128,0.073108069,0.083438763,0.093690761,0.103852414,0.113914668,0.12387111,0.133717976,0.143454104,0.153080852,0.162601977,0.172023478,0.181353408,0.190601659,0.199779715,0.208900392,0.217977554,0.227025824,0.236060286,0.245096203,0.25414873,0.263232663,0.272362201,0.281550749,0.290810739,0.3001535,0.309589155,0.319126546,0.328773195,0.338535288,0.348417681,0.358423924,0.368556299,0.378815874,0.389202558,0.39971517,0.410351506,0.421108414,0.431981864,0.442967024,0.454058334,0.465249579,0.476533961,0.487904169,0.499352452,0.510870685,0.522450438,0.53408304,0.545759646,0.557471302,0.569209001,0.58096375,0.592726625,0.604488826,0.616241735,0.627976965,0.639686406,0.651362275,0.662997152,0.67458402,0.686116295,0.697587859,0.708993076,0.72032682,0.731584485,0.742761999,0.753855838,0.76486303,0.775781175,0.786608452,0.797343647,0.807986177,0.818536139,0.828994363,0.839362491,0.849643081,0.85983973,0.869957231,0.88000176,0.889981092,0.899904851,0.90978478,0.919635035,0.92947248,0.939316991,0.949191721,0.959123331,0.969142159,0.979282298,1.0),.UNSPECIFIED.);
#408=EDGE_CURVE('',#309,#208,#407,.T.);
#409=CARTESIAN_POINT('',(7.5,1.3,0.05));
#410=VERTEX_POINT('',#409);
#411=CARTESIAN_POINT('',(7.5,0.0,-0.95));
#412=VERTEX_POINT('',#411);
#413=CARTESIAN_POINT('',(7.5,1.3,0.05));
#414=CARTESIAN_POINT('',(7.499254263,1.299968615,0.046954819));
#415=CARTESIAN_POINT('',(7.494971034,1.299610901,0.043600073));
#416=CARTESIAN_POINT('',(7.488684072,1.298812347,0.038853348));
#417=CARTESIAN_POINT('',(7.481853302,1.297756082,0.034321419));
#418=CARTESIAN_POINT('',(7.474013413,1.296283028,0.029160636));
#419=CARTESIAN_POINT('',(7.465272646,1.294357457,0.02345235));
#420=CARTESIAN_POINT('',(7.455846202,1.291961891,0.017204797));
#421=CARTESIAN_POINT('',(7.445854868,1.28908295,0.01044464));
#422=CARTESIAN_POINT('',(7.43540862,1.285713051,0.003187469));
#423=CARTESIAN_POINT('',(7.42458995,1.281847732,-0.004550641));
#424=CARTESIAN_POINT('',(7.41346748,1.277485094,-0.012755727));
#425=CARTESIAN_POINT('',(7.402097712,1.272625029,-0.021414445));
#426=CARTESIAN_POINT('',(7.390528773,1.267268799,-0.030514084));
#427=CARTESIAN_POINT('',(7.378802369,1.261418716,-0.040042258));
#428=CARTESIAN_POINT('',(7.366955424,1.255077913,-0.049986795));
#429=CARTESIAN_POINT('',(7.355021225,1.24825019,-0.060335625));
#430=CARTESIAN_POINT('',(7.343030288,1.240939895,-0.071076706));
#431=CARTESIAN_POINT('',(7.331011005,1.233151843,-0.082197967));
#432=CARTESIAN_POINT('',(7.31899013,1.22489125,-0.093687268));
#433=CARTESIAN_POINT('',(7.306993156,1.216163695,-0.105532362));
#434=CARTESIAN_POINT('',(7.295044602,1.206975083,-0.117720873));
#435=CARTESIAN_POINT('',(7.283168236,1.197331624,-0.13024027));
#436=CARTESIAN_POINT('',(7.27138725,1.187239814,-0.143077854));
#437=CARTESIAN_POINT('',(7.259724394,1.176706427,-0.156220738));
#438=CARTESIAN_POINT('',(7.248202086,1.165738507,-0.169655841));
#439=CARTESIAN_POINT('',(7.236842491,1.154343359,-0.183369874));
#440=CARTESIAN_POINT('',(7.225667588,1.142528554,-0.197349334));
#441=CARTESIAN_POINT('',(7.214699215,1.130301924,-0.211580494));
#442=CARTESIAN_POINT('',(7.203959107,1.117671565,-0.226049402));
#443=CARTESIAN_POINT('',(7.193468922,1.104645835,-0.240741874));
#444=CARTESIAN_POINT('',(7.183250251,1.091233364,-0.255643492));
#445=CARTESIAN_POINT('',(7.173324631,1.077443051,-0.270739603));
#446=CARTESIAN_POINT('',(7.163713544,1.06328407,-0.286015317));
#447=CARTESIAN_POINT('',(7.154438408,1.048765873,-0.301455511));
#448=CARTESIAN_POINT('',(7.145520567,1.033898198,-0.317044827));
#449=CARTESIAN_POINT('',(7.136981272,1.018691064,-0.332767678));
#450=CARTESIAN_POINT('',(7.128841655,1.003154785,-0.34860825));
#451=CARTESIAN_POINT('',(7.121122704,0.987299966,-0.364550513));
#452=CARTESIAN_POINT('',(7.113845225,0.971137508,-0.380578221));
#453=CARTESIAN_POINT('',(7.107029805,0.954678614,-0.396674928));
#454=CARTESIAN_POINT('',(7.100696764,0.937934787,-0.412823992));
#455=CARTESIAN_POINT('',(7.094866107,0.920917836,-0.42900859));
#456=CARTESIAN_POINT('',(7.089557469,0.903639872,-0.445211731));
#457=CARTESIAN_POINT('',(7.084790053,0.886113315,-0.46141627));
#458=CARTESIAN_POINT('',(7.080582562,0.868350888,-0.477604926));
#459=CARTESIAN_POINT('',(7.076953131,0.85036562,-0.493760299));
#460=CARTESIAN_POINT('',(7.073919243,0.832170844,-0.50986489));
#461=CARTESIAN_POINT('',(7.071497651,0.813780191,-0.525901126));
#462=CARTESIAN_POINT('',(7.069704286,0.795207591,-0.54185138));
#463=CARTESIAN_POINT('',(7.068554159,0.776467266,-0.557698003));
#464=CARTESIAN_POINT('',(7.068061263,0.757573724,-0.573423347));
#465=CARTESIAN_POINT('',(7.068238459,0.738541749,-0.589009797));
#466=CARTESIAN_POINT('',(7.069097368,0.719386398,-0.604439809));
#467=CARTESIAN_POINT('',(7.070648247,0.700122984,-0.619695937));
#468=CARTESIAN_POINT('',(7.072899862,0.680767069,-0.634760878));
#469=CARTESIAN_POINT('',(7.075859359,0.661334446,-0.649617511));
#470=CARTESIAN_POINT('',(7.079532126,0.641841123,-0.664248935));
#471=CARTESIAN_POINT('',(7.083921647,0.622303303,-0.678638522));
#472=CARTESIAN_POINT('',(7.089029362,0.602737366,-0.692769957));
#473=CARTESIAN_POINT('',(7.094854513,0.583159844,-0.706627291));
#474=CARTESIAN_POINT('',(7.101393992,0.563587393,-0.720194993));
#475=CARTESIAN_POINT('',(7.108642185,0.544036765,-0.733458));
#476=CARTESIAN_POINT('',(7.116590815,0.524524782,-0.746401774));
#477=CARTESIAN_POINT('',(7.125228786,0.505068296,-0.759012355));
#478=CARTESIAN_POINT('',(7.134542023,0.48568416,-0.771276415));
#479=CARTESIAN_POINT('',(7.144513316,0.466389191,-0.783181316));
#480=CARTESIAN_POINT('',(7.155122166,0.447200131,-0.79471516));
#481=CARTESIAN_POINT('',(7.166344632,0.42813361,-0.805866848));
#482=CARTESIAN_POINT('',(7.178153181,0.40920611,-0.816626123));
#483=CARTESIAN_POINT('',(7.190516544,0.390433922,-0.826983629));
#484=CARTESIAN_POINT('',(7.203399577,0.371833111,-0.836930947));
#485=CARTESIAN_POINT('',(7.216763123,0.353419479,-0.846460649));
#486=CARTESIAN_POINT('',(7.230563888,0.335208523,-0.855566329));
#487=CARTESIAN_POINT('',(7.244754315,0.317215405,-0.864242645));
#488=CARTESIAN_POINT('',(7.259282476,0.299454914,-0.87248535));
#489=CARTESIAN_POINT('',(7.274091964,0.281941434,-0.880291318));
#490=CARTESIAN_POINT('',(7.2891218,0.264688912,-0.887658567));
#491=CARTESIAN_POINT('',(7.304306343,0.247710832,-0.89458628));
#492=CARTESIAN_POINT('',(7.319575222,0.231020185,-0.901074812));
#493=CARTESIAN_POINT('',(7.334853265,0.214629448,-0.907125703));
#494=CARTESIAN_POINT('',(7.350060452,0.198550559,-0.912741673));
#495=CARTESIAN_POINT('',(7.365111879,0.1827949,-0.917926622));
#496=CARTESIAN_POINT('',(7.379917726,0.167373275,-0.92268562));
#497=CARTESIAN_POINT('',(7.39438326,0.152295894,-0.927024888));
#498=CARTESIAN_POINT('',(7.408408848,0.137572341,-0.930951784));
#499=CARTESIAN_POINT('',(7.42189,0.123211534,-0.934474774));
#500=CARTESIAN_POINT('',(7.434717456,0.109221647,-0.937603407));
#501=CARTESIAN_POINT('',(7.446777309,0.095609976,-0.940348286));
#502=CARTESIAN_POINT('',(7.457951224,0.082382629,-0.942721036));
#503=CARTESIAN_POINT('',(7.46811665,0.069544097,-0.944734267));
#504=CARTESIAN_POINT('',(7.477147194,0.057095875,-0.946401507));
#505=CARTESIAN_POINT('',(7.484912197,0.045035684,-0.947737109));
#506=CARTESIAN_POINT('',(7.491276676,0.033350651,-0.948755854));
#507=CARTESIAN_POINT('',(7.49749662,0.018721859,-0.949681351));
#508=CARTESIAN_POINT('',(7.499991436,0.007411479,-0.950000992));
#509=CARTESIAN_POINT('',(7.5,0.0,-0.95));
#510=B_SPLINE_CURVE_WITH_KNOTS('',3,(#413,#414,#415,#416,#417,#418,#419,#420,#421,#422,#423,#424,#425,#426,#427,#428,#429,#430,#431,#432,#433,#434,#435,#436,#437,#438,#439,#440,#441,#442,#443,#444,#445,#446,#447,#448,#449,#450,#451,#452,#453,#454,#455,#456,#457,#458,#459,#460,#461,#462,#463,#464,#465,#466,#467,#468,#469,#470,#471,#472,#473,#474,#475,#476,#477,#478,#479,#480,#481,#482,#483,#484,#485,#486,#487,#488,#489,#490,#491,#492,#493,#494,#495,#496,#497,#498,#499,#500,#501,#502,#503,#504,#505,#506,#507,#508,#509),.UNSPECIFIED.,.F.,.F.,(4,1,1,1,1,1,1,1,1,1,1,1,1,1,1,1,1,1,1,1,1,1,1,1,1,1,1,1,1,1,1,1,1,1,1,1,1,1,1,1,1,1,1,1,1,1,1,1,1,1,1,1,1,1,1,1,1,1,1,1,1,1,1,1,1,1,1,1,1,1,1,1,1,1,1,1,1,1,1,1,1,1,1,1,1,1,1,1,1,1,1,1,1,1,4),(0.0,0.004534618,0.007995484,0.01222344,0.017097439,0.022521497,0.028423179,0.034748126,0.041455145,0.048512471,0.055895061,0.063582675,0.071558514,0.079808256,0.088319361,0.097080582,0.106081605,0.115312789,0.124764977,0.134429359,0.14429737,0.154360617,0.164610827,0.175039811,0.185639437,0.196401617,0.207318296,0.218381454,0.229583105,0.240915306,0.252370166,0.263939862,0.275616651,0.287392891,0.299261063,0.311213788,0.323243855,0.335344247,0.347508164,0.359729053,0.372000635,0.384316935,0.396672306,0.409061462,0.421479498,0.433921919,0.44638466,0.458864105,0.4713571,0.483860962,0.496373484,0.50889293,0.521418022,0.533947921,0.546482194,0.559020772,0.5715639,0.584112068,0.596665936,0.609226244,0.621793707,0.634368908,0.646952166,0.65954341,0.672142032,0.684746742,0.697355414,0.709964933,0.722571036,0.735168165,0.74774931,0.760305874,0.772827537,0.785302128,0.797715522,0.810051539,0.822291866,0.834416,0.846401208,0.858222518,0.869852737,0.881262505,0.892420403,0.903293107,0.913845633,0.924041691,0.933844189,0.943215981,0.952120953,0.96052567,0.968401867,0.975730319,0.982506862,0.988751611,1.0),.UNSPECIFIED.);
#511=EDGE_CURVE('',#410,#412,#510,.T.);
#512=CARTESIAN_POINT('',(7.5,-1.3,0.05));
#513=VERTEX_POINT('',#512);
#514=CARTESIAN_POINT('',(7.5,-1.3,0.05));
#515=CARTESIAN_POINT('',(7.499254263,-1.299968615,0.046954819));
#516=CARTESIAN_POINT('',(7.494971034,-1.299610901,0.043600073));
#517=CARTESIAN_POINT('',(7.488684072,-1.298812347,0.038853348));
#518=CARTESIAN_POINT('',(7.481853302,-1.297756082,0.034321419));
#519=CARTESIAN_POINT('',(7.474013413,-1.296283028,0.029160636));
#520=CARTESIAN_POINT('',(7.465272646,-1.294357457,0.02345235));
#521=CARTESIAN_POINT('',(7.455846202,-1.291961891,0.017204797));
#522=CARTESIAN_POINT('',(7.445854868,-1.28908295,0.01044464));
#523=CARTESIAN_POINT('',(7.43540862,-1.285713051,0.003187469));
#524=CARTESIAN_POINT('',(7.42458995,-1.281847732,-0.004550641));
#525=CARTESIAN_POINT('',(7.41346748,-1.277485094,-0.012755727));
#526=CARTESIAN_POINT('',(7.402097712,-1.272625029,-0.021414445));
#527=CARTESIAN_POINT('',(7.390528773,-1.267268799,-0.030514084));
#528=CARTESIAN_POINT('',(7.378802369,-1.261418716,-0.040042258));
#529=CARTESIAN_POINT('',(7.366955424,-1.255077913,-0.049986795));
#530=CARTESIAN_POINT('',(7.355021225,-1.24825019,-0.060335625));
#531=CARTESIAN_POINT('',(7.343030288,-1.240939895,-0.071076706));
#532=CARTESIAN_POINT('',(7.331011005,-1.233151843,-0.082197967));
#533=CARTESIAN_POINT('',(7.31899013,-1.22489125,-0.093687268));
#534=CARTESIAN_POINT('',(7.306993156,-1.216163695,-0.105532362));
#535=CARTESIAN_POINT('',(7.295044602,-1.206975083,-0.117720873));
#536=CARTESIAN_POINT('',(7.283168236,-1.197331624,-0.13024027));
#537=CARTESIAN_POINT('',(7.27138725,-1.187239814,-0.143077854));
#538=CARTESIAN_POINT('',(7.259724394,-1.176706427,-0.156220738));
#539=CARTESIAN_POINT('',(7.248202086,-1.165738507,-0.169655841));
#540=CARTESIAN_POINT('',(7.236842491,-1.154343359,-0.183369874));
#541=CARTESIAN_POINT('',(7.225667588,-1.142528554,-0.197349334));
#542=CARTESIAN_POINT('',(7.214699215,-1.130301924,-0.211580494));
#543=CARTESIAN_POINT('',(7.203959107,-1.117671565,-0.226049402));
#544=CARTESIAN_POINT('',(7.193468922,-1.104645835,-0.240741874));
#545=CARTESIAN_POINT('',(7.183250251,-1.091233364,-0.255643492));
#546=CARTESIAN_POINT('',(7.173324631,-1.077443051,-0.270739603));
#547=CARTESIAN_POINT('',(7.163713544,-1.06328407,-0.286015317));
#548=CARTESIAN_POINT('',(7.154438408,-1.048765873,-0.301455511));
#549=CARTESIAN_POINT('',(7.145520567,-1.033898198,-0.317044827));
#550=CARTESIAN_POINT('',(7.136981272,-1.018691064,-0.332767678));
#551=CARTESIAN_POINT('',(7.128841655,-1.003154785,-0.34860825));
#552=CARTESIAN_POINT('',(7.121122704,-0.987299966,-0.364550513));
#553=CARTESIAN_POINT('',(7.113845225,-0.971137508,-0.380578221));
#554=CARTESIAN_POINT('',(7.107029805,-0.954678614,-0.396674928));
#555=CARTESIAN_POINT('',(7.100696764,-0.937934787,-0.412823992));
#556=CARTESIAN_POINT('',(7.094866107,-0.920917836,-0.42900859));
#557=CARTESIAN_POINT('',(7.089557469,-0.903639872,-0.445211731));
#558=CARTESIAN_POINT('',(7.084790053,-0.886113315,-0.46141627));
#559=CARTESIAN_POINT('',(7.080582562,-0.868350888,-0.477604926));
#560=CARTESIAN_POINT('',(7.076953131,-0.85036562,-0.493760299));
#561=CARTESIAN_POINT('',(7.073919243,-0.832170844,-0.50986489));
#562=CARTESIAN_POINT('',(7.071497651,-0.813780191,-0.525901126));
#563=CARTESIAN_POINT('',(7.069704286,-0.795207591,-0.54185138));
#564=CARTESIAN_POINT('',(7.068554159,-0.776467266,-0.557698003));
#565=CARTESIAN_POINT('',(7.068061263,-0.757573724,-0.573423347));
#566=CARTESIAN_POINT('',(7.068238459,-0.738541749,-0.589009797));
#567=CARTESIAN_POINT('',(7.069097368,-0.719386398,-0.604439809));
#568=CARTESIAN_POINT('',(7.070648247,-0.700122984,-0.619695937));
#569=CARTESIAN_POINT('',(7.072899862,-0.680767069,-0.634760878));
#570=CARTESIAN_POINT('',(7.075859359,-0.661334446,-0.649617511));
#571=CARTESIAN_POINT('',(7.079532126,-0.641841123,-0.664248935));
#572=CARTESIAN_POINT('',(7.083921647,-0.622303303,-0.678638522));
#573=CARTESIAN_POINT('',(7.089029362,-0.602737366,-0.692769957));
#574=CARTESIAN_POINT('',(7.094854513,-0.583159844,-0.706627291));
#575=CARTESIAN_POINT('',(7.101393992,-0.563587393,-0.720194993));
#576=CARTESIAN_POINT('',(7.108642185,-0.544036765,-0.733458));
#577=CARTESIAN_POINT('',(7.116590815,-0.524524782,-0.746401774));
#578=CARTESIAN_POINT('',(7.125228786,-0.505068296,-0.759012355));
#579=CARTESIAN_POINT('',(7.134542023,-0.48568416,-0.771276415));
#580=CARTESIAN_POINT('',(7.144513316,-0.466389191,-0.783181316));
#581=CARTESIAN_POINT('',(7.155122166,-0.447200131,-0.79471516));
#582=CARTESIAN_POINT('',(7.166344632,-0.42813361,-0.805866848));
#583=CARTESIAN_POINT('',(7.178153181,-0.40920611,-0.816626123));
#584=CARTESIAN_POINT('',(7.190516544,-0.390433922,-0.826983629));
#585=CARTESIAN_POINT('',(7.203399577,-0.371833111,-0.836930947));
#586=CARTESIAN_POINT('',(7.216763123,-0.353419479,-0.846460649));
#587=CARTESIAN_POINT('',(7.230563888,-0.335208523,-0.855566329));
#588=CARTESIAN_POINT('',(7.244754315,-0.317215405,-0.864242645));
#589=CARTESIAN_POINT('',(7.259282476,-0.299454914,-0.87248535));
#590=CARTESIAN_POINT('',(7.274091964,-0.281941434,-0.880291318));
#591=CARTESIAN_POINT('',(7.2891218,-0.264688912,-0.887658567));
#592=CARTESIAN_POINT('',(7.304306343,-0.247710832,-0.89458628));
#593=CARTESIAN_POINT('',(7.319575222,-0.231020185,-0.901074812));
#594=CARTESIAN_POINT('',(7.334853265,-0.214629448,-0.907125703));
#595=CARTESIAN_POINT('',(7.350060452,-0.198550559,-0.912741673));
#596=CARTESIAN_POINT('',(7.365111879,-0.1827949,-0.917926622));
#597=CARTESIAN_POINT('',(7.379917726,-0.167373275,-0.92268562));
#598=CARTESIAN_POINT('',(7.39438326,-0.152295894,-0.927024888));
#599=CARTESIAN_POINT('',(7.408408848,-0.137572341,-0.930951784));
#600=CARTESIAN_POINT('',(7.42189,-0.123211534,-0.934474774));
#601=CARTESIAN_POINT('',(7.434717456,-0.109221647,-0.937603407));
#602=CARTESIAN_POINT('',(7.446777309,-0.095609976,-0.940348286));
#603=CARTESIAN_POINT('',(7.457951224,-0.082382629,-0.942721036));
#604=CARTESIAN_POINT('',(7.46811665,-0.069544097,-0.944734267));
#605=CARTESIAN_POINT('',(7.477147194,-0.057095875,-0.946401507));
#606=CARTESIAN_POINT('',(7.484912197,-0.045035684,-0.947737109));
#607=CARTESIAN_POINT('',(7.491276676,-0.033350651,-0.948755854));
#608=CARTESIAN_POINT('',(7.49749662,-0.018721859,-0.949681351));
#609=CARTESIAN_POINT('',(7.499991436,-0.007411479,-0.950000992));
#610=CARTESIAN_POINT('',(7.5,0.0,-0.95));
#611=B_SPLINE_CURVE_WITH_KNOTS('',3,(#514,#515,#516,#517,#518,#519,#520,#521,#522,#523,#524,#525,#526,#527,#528,#529,#530,#531,#532,#533,#534,#535,#536,#537,#538,#539,#540,#541,#542,#543,#544,#545,#546,#547,#548,#549,#550,#551,#552,#553,#554,#555,#556,#557,#558,#559,#560,#561,#562,#563,#564,#565,#566,#567,#568,#569,#570,#571,#572,#573,#574,#575,#576,#577,#578,#579,#580,#581,#582,#583,#584,#585,#586,#587,#588,#589,#590,#591,#592,#593,#594,#595,#596,#597,#598,#599,#600,#601,#602,#603,#604,#605,#606,#607,#608,#609,#610),.UNSPECIFIED.,.F.,.F.,(4,1,1,1,1,1,1,1,1,1,1,1,1,1,1,1,1,1,1,1,1,1,1,1,1,1,1,1,1,1,1,1,1,1,1,1,1,1,1,1,1,1,1,1,1,1,1,1,1,1,1,1,1,1,1,1,1,1,1,1,1,1,1,1,1,1,1,1,1,1,1,1,1,1,1,1,1,1,1,1,1,1,1,1,1,1,1,1,1,1,1,1,1,1,4),(0.0,0.004534618,0.007995484,0.01222344,0.017097439,0.022521497,0.028423179,0.034748126,0.041455145,0.048512471,0.055895061,0.063582675,0.071558514,0.079808256,0.088319361,0.097080582,0.106081605,0.115312789,0.124764977,0.134429359,0.14429737,0.154360617,0.164610827,0.175039811,0.185639437,0.196401617,0.207318296,0.218381454,0.229583105,0.240915306,0.252370166,0.263939862,0.275616651,0.287392891,0.299261063,0.311213788,0.323243855,0.335344247,0.347508164,0.359729053,0.372000635,0.384316935,0.396672306,0.409061462,0.421479498,0.433921919,0.44638466,0.458864105,0.4713571,0.483860962,0.496373484,0.50889293,0.521418022,0.533947921,0.546482194,0.559020772,0.5715639,0.584112068,0.596665936,0.609226244,0.621793707,0.634368908,0.646952166,0.65954341,0.672142032,0.684746742,0.697355414,0.709964933,0.722571036,0.735168165,0.74774931,0.760305874,0.772827537,0.785302128,0.797715522,0.810051539,0.822291866,0.834416,0.846401208,0.858222518,0.869852737,0.881262505,0.892420403,0.903293107,0.913845633,0.924041691,0.933844189,0.943215981,0.952120953,0.96052567,0.968401867,0.975730319,0.982506862,0.988751611,1.0),.UNSPECIFIED.);
#612=EDGE_CURVE('',#513,#412,#611,.T.);
#613=CARTESIAN_POINT('',(0.0,0.0,0.9));
#614=VERTEX_POINT('',#613);
#615=CARTESIAN_POINT('',(0.0,0.0,0.9));
#616=CARTESIAN_POINT('',(2.5,0.0,-0.303846154));
#617=B_SPLINE_CURVE_WITH_KNOTS('',1,(#615,#616),.UNSPECIFIED.,.F.,.F.,(2,2),(0.0,1.0),.UNSPECIFIED.);
#618=EDGE_CURVE('',#614,#4,#617,.T.);
#619=CARTESIAN_POINT('',(2.5,0.0,-0.303846154));
#620=CARTESIAN_POINT('',(5.0,0.0,-0.9));
#621=B_SPLINE_CURVE_WITH_KNOTS('',1,(#619,#620),.UNSPECIFIED.,.F.,.F.,(2,2),(0.0,1.0),.UNSPECIFIED.);
#622=EDGE_CURVE('',#4,#208,#621,.T.);
#623=CARTESIAN_POINT('',(5.0,0.0,-0.9));
#624=CARTESIAN_POINT('',(7.5,0.0,-0.95));
#625=B_SPLINE_CURVE_WITH_KNOTS('',1,(#623,#624),.UNSPECIFIED.,.F.,.F.,(2,2),(0.0,1.0),.UNSPECIFIED.);
#626=EDGE_CURVE('',#208,#412,#625,.T.);
#627=CARTESIAN_POINT('',(10.0,0.0,-0.542307692));
#628=VERTEX_POINT('',#627);
#629=CARTESIAN_POINT('',(7.5,0.0,-0.95));
#630=CARTESIAN_POINT('',(10.0,0.0,-0.542307692));
#631=B_SPLINE_CURVE_WITH_KNOTS('',1,(#629,#630),.UNSPECIFIED.,.F.,.F.,(2,2),(0.0,1.0),.UNSPECIFIED.);
#632=EDGE_CURVE('',#412,#628,#631,.T.);
#633=CARTESIAN_POINT('',(0.0,0.0,0.9));
#634=CARTESIAN_POINT('',(3.191722345,0.0,-0.636937068));
#635=CARTESIAN_POINT('',(0.0,0.0,0.9));
#636=CARTESIAN_POINT('',(3.191722345,0.450288307,-0.473045527));
#637=CARTESIAN_POINT('',(0.0,0.0,0.9));
#638=CARTESIAN_POINT('',(3.191722345,0.613278714,0.114611168));
#639=CARTESIAN_POINT('',(0.0,0.0,0.9));
#640=CARTESIAN_POINT('',(3.191722345,1.085185597,0.197821084));
#641=B_SPLINE_SURFACE_WITH_KNOTS('',3,1,((#633,#634),(#635,#636),(#637,#638),(#639,#640)),.UNSPECIFIED.,.F.,.F.,.F.,(4,4),(2,2),(0.0,1.0),(0.0,1.0),.UNSPECIFIED.);
#642=CARTESIAN_POINT('',(0.0,0.0,0.9));
#643=CARTESIAN_POINT('',(2.5,0.85,0.35));
#644=B_SPLINE_CURVE_WITH_KNOTS('',1,(#642,#643),.UNSPECIFIED.,.F.,.F.,(2,2),(0.0,1.0),.UNSPECIFIED.);
#645=EDGE_CURVE('',#614,#2,#644,.T.);
#646=ORIENTED_EDGE('',*,*,#645,.T.);
#647=ORIENTED_EDGE('',*,*,#103,.T.);
#648=ORIENTED_EDGE('',*,*,#618,.F.);
#649=EDGE_LOOP('',(#646,#647,#648));
#650=FACE_OUTER_BOUND('',#649,.T.);
#651=ADVANCED_FACE('plate V0-V1 stbd',(#650),#641,.T.);
#652=CARTESIAN_POINT('',(0.0,0.0,0.9));
#653=CARTESIAN_POINT('',(3.191722345,-1.085185597,0.197821084));
#654=CARTESIAN_POINT('',(0.0,0.0,0.9));
#655=CARTESIAN_POINT('',(3.191722345,-0.613278714,0.114611168));
#656=CARTESIAN_POINT('',(0.0,0.0,0.9));
#657=CARTESIAN_POINT('',(3.191722345,-0.450288307,-0.473045527));
#658=CARTESIAN_POINT('',(0.0,0.0,0.9));
#659=CARTESIAN_POINT('',(3.191722345,0.0,-0.636937068));
#660=B_SPLINE_SURFACE_WITH_KNOTS('',3,1,((#652,#653),(#654,#655),(#656,#657),(#658,#659)),.UNSPECIFIED.,.F.,.F.,.F.,(4,4),(2,2),(0.0,1.0),(0.0,1.0),.UNSPECIFIED.);
#661=CARTESIAN_POINT('',(0.0,0.0,0.9));
#662=CARTESIAN_POINT('',(2.5,-0.85,0.35));
#663=B_SPLINE_CURVE_WITH_KNOTS('',1,(#661,#662),.UNSPECIFIED.,.F.,.F.,(2,2),(0.0,1.0),.UNSPECIFIED.);
#664=EDGE_CURVE('',#614,#105,#663,.T.);
#665=ORIENTED_EDGE('',*,*,#618,.T.);
#666=ORIENTED_EDGE('',*,*,#204,.F.);
#667=ORIENTED_EDGE('',*,*,#664,.F.);
#668=EDGE_LOOP('',(#665,#666,#667));
#669=FACE_OUTER_BOUND('',#668,.T.);
#670=ADVANCED_FACE('plate V0-V1 port',(#669),#660,.T.);
#671=CARTESIAN_POINT('',(2.441810473,0.0,-0.28997019));
#672=CARTESIAN_POINT('',(5.467665856,0.0,-1.01152032));
#673=CARTESIAN_POINT('',(2.441810473,0.365078605,-0.225596982));
#674=CARTESIAN_POINT('',(5.467665856,0.601928373,-0.905384107));
#675=CARTESIAN_POINT('',(2.441810473,0.636682498,0.185613141));
#676=CARTESIAN_POINT('',(5.467665856,1.049739028,-0.227395759));
#677=CARTESIAN_POINT('',(2.441810473,0.839525885,0.355818953));
#678=CARTESIAN_POINT('',(5.467665856,1.384179854,0.053233414));
#679=B_SPLINE_SURFACE_WITH_KNOTS('',3,1,((#671,#672),(#673,#674),(#675,#676),(#677,#678)),.UNSPECIFIED.,.F.,.F.,.F.,(4,4),(2,2),(0.0,1.0),(0.0,1.0),.UNSPECIFIED.);
#680=CARTESIAN_POINT('',(2.5,0.85,0.35));
#681=CARTESIAN_POINT('',(5.0,1.3,0.1));
#682=B_SPLINE_CURVE_WITH_KNOTS('',1,(#680,#681),.UNSPECIFIED.,.F.,.F.,(2,2),(0.0,1.0),.UNSPECIFIED.);
#683=EDGE_CURVE('',#2,#206,#682,.T.);
#684=ORIENTED_EDGE('',*,*,#683,.T.);
#685=ORIENTED_EDGE('',*,*,#307,.T.);
#686=ORIENTED_EDGE('',*,*,#622,.F.);
#687=ORIENTED_EDGE('',*,*,#103,.F.);
#688=EDGE_LOOP('',(#684,#685,#686,#687));
#689=FACE_OUTER_BOUND('',#688,.T.);
#690=ADVANCED_FACE('plate V1-V2 stbd',(#689),#679,.T.);
#691=CARTESIAN_POINT('',(2.441810473,-0.839525885,0.355818953));
#692=CARTESIAN_POINT('',(5.467665856,-1.384179854,0.053233414));
#693=CARTESIAN_POINT('',(2.441810473,-0.636682498,0.185613141));
#694=CARTESIAN_POINT('',(5.467665856,-1.049739028,-0.227395759));
#695=CARTESIAN_POINT('',(2.441810473,-0.365078605,-0.225596982));
#696=CARTESIAN_POINT('',(5.467665856,-0.601928373,-0.905384107));
#697=CARTESIAN_POINT('',(2.441810473,0.0,-0.28997019));
#698=CARTESIAN_POINT('',(5.467665856,0.0,-1.01152032));
#699=B_SPLINE_SURFACE_WITH_KNOTS('',3,1,((#691,#692),(#693,#694),(#695,#696),(#697,#698)),.UNSPECIFIED.,.F.,.F.,.F.,(4,4),(2,2),(0.0,1.0),(0.0,1.0),.UNSPECIFIED.);
#700=CARTESIAN_POINT('',(2.5,-0.85,0.35));
#701=CARTESIAN_POINT('',(5.0,-1.3,0.1));
#702=B_SPLINE_CURVE_WITH_KNOTS('',1,(#700,#701),.UNSPECIFIED.,.F.,.F.,(2,2),(0.0,1.0),.UNSPECIFIED.);
#703=EDGE_CURVE('',#105,#309,#702,.T.);
#704=ORIENTED_EDGE('',*,*,#204,.T.);
#705=ORIENTED_EDGE('',*,*,#622,.T.);
#706=ORIENTED_EDGE('',*,*,#408,.F.);
#707=ORIENTED_EDGE('',*,*,#703,.F.);
#708=EDGE_LOOP('',(#704,#705,#706,#707));
#709=FACE_OUTER_BOUND('',#708,.T.);
#710=ADVANCED_FACE('plate V1-V2 port',(#709),#699,.T.);
#711=CARTESIAN_POINT('',(4.95,0.0,-0.899));
#712=CARTESIAN_POINT('',(7.55,0.0,-0.951));
#713=CARTESIAN_POINT('',(4.95,0.524839023,-0.899));
#714=CARTESIAN_POINT('',(7.55,0.524839023,-0.951));
#715=CARTESIAN_POINT('',(4.95,1.3,-0.046610975));
#716=CARTESIAN_POINT('',(7.55,1.3,-0.098610975));
#717=CARTESIAN_POINT('',(4.95,1.3,0.101));
#718=CARTESIAN_POINT('',(7.55,1.3,0.049));
#719=B_SPLINE_SURFACE_WITH_KNOTS('',3,1,((#711,#712),(#713,#714),(#715,#716),(#717,#718)),.UNSPECIFIED.,.F.,.F.,.F.,(4,4),(2,2),(0.0,1.0),(0.0,1.0),.UNSPECIFIED.);
#720=CARTESIAN_POINT('',(5.0,1.3,0.1));
#721=CARTESIAN_POINT('',(7.5,1.3,0.05));
#722=B_SPLINE_CURVE_WITH_KNOTS('',1,(#720,#721),.UNSPECIFIED.,.F.,.F.,(2,2),(0.0,1.0),.UNSPECIFIED.);
#723=EDGE_CURVE('',#206,#410,#722,.T.);
#724=ORIENTED_EDGE('',*,*,#723,.T.);
#725=ORIENTED_EDGE('',*,*,#511,.T.);
#726=ORIENTED_EDGE('',*,*,#626,.F.);
#727=ORIENTED_EDGE('',*,*,#307,.F.);
#728=EDGE_LOOP('',(#724,#725,#726,#727));
#729=FACE_OUTER_BOUND('',#728,.T.);
#730=ADVANCED_FACE('plate V2-V3 stbd',(#729),#719,.T.);
#731=CARTESIAN_POINT('',(4.95,-1.3,0.101));
#732=CARTESIAN_POINT('',(7.55,-1.3,0.049));
#733=CARTESIAN_POINT('',(4.95,-1.3,-0.046610975));
#734=CARTESIAN_POINT('',(7.55,-1.3,-0.098610975));
#735=CARTESIAN_POINT('',(4.95,-0.524839023,-0.899));
#736=CARTESIAN_POINT('',(7.55,-0.524839023,-0.951));
#737=CARTESIAN_POINT('',(4.95,0.0,-0.899));
#738=CARTESIAN_POINT('',(7.55,0.0,-0.951));
#739=B_SPLINE_SURFACE_WITH_KNOTS('',3,1,((#731,#732),(#733,#734),(#735,#736),(#737,#738)),.UNSPECIFIED.,.F.,.F.,.F.,(4,4),(2,2),(0.0,1.0),(0.0,1.0),.UNSPECIFIED.);
#740=CARTESIAN_POINT('',(5.0,-1.3,0.1));
#741=CARTESIAN_POINT('',(7.5,-1.3,0.05));
#742=B_SPLINE_CURVE_WITH_KNOTS('',1,(#740,#741),.UNSPECIFIED.,.F.,.F.,(2,2),(0.0,1.0),.UNSPECIFIED.);
#743=EDGE_CURVE('',#309,#513,#742,.T.);
#744=ORIENTED_EDGE('',*,*,#408,.T.);
#745=ORIENTED_EDGE('',*,*,#626,.T.);
#746=ORIENTED_EDGE('',*,*,#612,.F.);
#747=ORIENTED_EDGE('',*,*,#743,.F.);
#748=EDGE_LOOP('',(#744,#745,#746,#747));
#749=FACE_OUTER_BOUND('',#748,.T.);
#750=ADVANCED_FACE('plate V2-V3 port',(#749),#739,.T.);
#751=CARTESIAN_POINT('',(7.009536482,0.0,-1.029983281));
#752=CARTESIAN_POINT('',(10.05863654,0.0,-0.532745426));
#753=CARTESIAN_POINT('',(7.009536482,0.347825497,-1.029983281));
#754=CARTESIAN_POINT('',(10.05863654,0.22472652,-0.532745426));
#755=CARTESIAN_POINT('',(7.009536482,1.378474163,-0.056574915));
#756=CARTESIAN_POINT('',(10.05863654,0.890618154,0.096163832));
#757=CARTESIAN_POINT('',(7.009536482,1.378474163,0.030381459));
#758=CARTESIAN_POINT('',(10.05863654,0.890618154,0.152345462));
#759=B_SPLINE_SURFACE_WITH_KNOTS('',3,1,((#751,#752),(#753,#754),(#755,#756),(#757,#758)),.UNSPECIFIED.,.F.,.F.,.F.,(4,4),(2,2),(0.0,1.0),(0.0,1.0),.UNSPECIFIED.);
#760=CARTESIAN_POINT('',(10.0,0.9,0.15));
#761=VERTEX_POINT('',#760);
#762=CARTESIAN_POINT('',(7.5,1.3,0.05));
#763=CARTESIAN_POINT('',(10.0,0.9,0.15));
#764=B_SPLINE_CURVE_WITH_KNOTS('',1,(#762,#763),.UNSPECIFIED.,.F.,.F.,(2,2),(0.0,1.0),.UNSPECIFIED.);
#765=EDGE_CURVE('',#410,#761,#764,.T.);
#766=ORIENTED_EDGE('',*,*,#765,.T.);
#767=CARTESIAN_POINT('',(10.0,0.9,0.15));
#768=CARTESIAN_POINT('',(10.0,0.0,-0.542307692));
#769=B_SPLINE_CURVE_WITH_KNOTS('',1,(#767,#768),.UNSPECIFIED.,.F.,.F.,(2,2),(0.0,1.0),.UNSPECIFIED.);
#770=EDGE_CURVE('',#761,#628,#769,.T.);
#771=ORIENTED_EDGE('',*,*,#770,.T.);
#772=ORIENTED_EDGE('',*,*,#632,.F.);
#773=ORIENTED_EDGE('',*,*,#511,.F.);
#774=EDGE_LOOP('',(#766,#771,#772,#773));
#775=FACE_OUTER_BOUND('',#774,.T.);
#776=ADVANCED_FACE('plate V3-V4 stbd',(#775),#759,.T.);
#777=CARTESIAN_POINT('',(7.009536482,-1.378474163,0.030381459));
#778=CARTESIAN_POINT('',(10.05863654,-0.890618154,0.152345462));
#779=CARTESIAN_POINT('',(7.009536482,-1.378474163,-0.056574915));
#780=CARTESIAN_POINT('',(10.05863654,-0.890618154,0.096163832));
#781=CARTESIAN_POINT('',(7.009536482,-0.347825497,-1.029983281));
#782=CARTESIAN_POINT('',(10.05863654,-0.22472652,-0.532745426));
#783=CARTESIAN_POINT('',(7.009536482,0.0,-1.029983281));
#784=CARTESIAN_POINT('',(10.05863654,0.0,-0.532745426));
#785=B_SPLINE_SURFACE_WITH_KNOTS('',3,1,((#777,#778),(#779,#780),(#781,#782),(#783,#784)),.UNSPECIFIED.,.F.,.F.,.F.,(4,4),(2,2),(0.0,1.0),(0.0,1.0),.UNSPECIFIED.);
#786=CARTESIAN_POINT('',(10.0,-0.9,0.15));
#787=VERTEX_POINT('',#786);
#788=CARTESIAN_POINT('',(7.5,-1.3,0.05));
#789=CARTESIAN_POINT('',(10.0,-0.9,0.15));
#790=B_SPLINE_CURVE_WITH_KNOTS('',1,(#788,#789),.UNSPECIFIED.,.F.,.F.,(2,2),(0.0,1.0),.UNSPECIFIED.);
#791=EDGE_CURVE('',#513,#787,#790,.T.);
#792=ORIENTED_EDGE('',*,*,#612,.T.);
#793=ORIENTED_EDGE('',*,*,#632,.T.);
#794=CARTESIAN_POINT('',(10.0,0.0,-0.542307692));
#795=CARTESIAN_POINT('',(10.0,-0.9,0.15));
#796=B_SPLINE_CURVE_WITH_KNOTS('',1,(#794,#795),.UNSPECIFIED.,.F.,.F.,(2,2),(0.0,1.0),.UNSPECIFIED.);
#797=EDGE_CURVE('',#628,#787,#796,.T.);
#798=ORIENTED_EDGE('',*,*,#797,.T.);
#799=ORIENTED_EDGE('',*,*,#791,.F.);
#800=EDGE_LOOP('',(#792,#793,#798,#799));
#801=FACE_OUTER_BOUND('',#800,.T.);
#802=ADVANCED_FACE('plate V3-V4 port',(#801),#785,.T.);
#803=OPEN_SHELL('',(#651,#670,#690,#710,#730,#750,#776,#802));
#804=SHELL_BASED_SURFACE_MODEL('',(#803));
#805=CARTESIAN_POINT('',(0.0,0.0,0.0));
#806=DIRECTION('',(0.0,0.0,1.0));
#807=DIRECTION('',(1.0,0.0,0.0));
#808=AXIS2_PLACEMENT_3D('',#805,#806,#807);
#809=(LENGTH_UNIT()NAMED_UNIT(*)SI_UNIT($,.METRE.));
#810=(NAMED_UNIT(*)PLANE_ANGLE_UNIT()SI_UNIT($,.RADIAN.));
#811=(NAMED_UNIT(*)SI_UNIT($,.STERADIAN.)SOLID_ANGLE_UNIT());
#812=UNCERTAINTY_MEASURE_WITH_UNIT(LENGTH_MEASURE(1.0E-4),#809,'distance_accuracy_value','');
#813=(GEOMETRIC_REPRESENTATION_CONTEXT(3)GLOBAL_UNCERTAINTY_ASSIGNED_CONTEXT((#812))GLOBAL_UNIT_ASSIGNED_CONTEXT((#809,#810,#811))REPRESENTATION_CONTEXT('','3D'));
#814=MANIFOLD_SURFACE_SHAPE_REPRESENTATION('bottom',(#808,#804),#813);
#815=APPLICATION_CONTEXT('automotive design');
#816=APPLICATION_PROTOCOL_DEFINITION('international standard','automotive_design',2000,#815);
#817=PRODUCT_CONTEXT('',#815,'mechanical');
#818=PRODUCT('cone-chain bottom','cone-chain bottom','',(#817));
#819=PRODUCT_DEFINITION_FORMATION('','',#818);
#820=PRODUCT_DEFINITION_CONTEXT('part definition',#815,'design');
#821=PRODUCT_DEFINITION('design','',#819,#820);
#822=PRODUCT_DEFINITION_SHAPE('','',#821);
#823=SHAPE_DEFINITION_REPRESENTATION(#822,#814);
#824=PRODUCT_RELATED_PRODUCT_CATEGORY('part','',(#818));
ENDSEC;
END-ISO-10303-21;
